<svg version="1.1" viewBox="0.0 0.0 600.0 600.0" fill="none" stroke="none" stroke-linecap="square" stroke-miterlimit="10" xmlns:xlink="http://www.w3.org/1999/xlink" xmlns="http://www.w3.org/2000/svg"><clipPath id="p.0"><path d="m0 0l600.0 0l0 600.0l-600.0 0l0 -600.0z" clip-rule="nonzero"/></clipPath><g clip-path="url(#p.0)"><path fill="#000000" fill-opacity="0.0" d="m0 0l600.0 0l0 600.0l-600.0 0z" fill-rule="evenodd"/><path fill="#000000" fill-opacity="0.0" d="m7.2755904 300.0l0 0c0 -161.66722 131.05719 -292.7244 292.7244 -292.7244l0 0c77.635345 0 152.09094 30.840517 206.98743 85.737c54.896484 54.89647 85.737 129.35207 85.737 206.98741l0 0c0 161.66724 -131.05719 292.72443 -292.72443 292.72443l0 0c-161.66722 0 -292.7244 -131.05719 -292.7244 -292.72443z" fill-rule="evenodd"/><path stroke="#000000" stroke-width="12.0" stroke-linejoin="round" stroke-linecap="butt" d="m7.2755904 300.0l0 0c0 -161.66722 131.05719 -292.7244 292.7244 -292.7244l0 0c77.635345 0 152.09094 30.840517 206.98743 85.737c54.896484 54.89647 85.737 129.35207 85.737 206.98741l0 0c0 161.66724 -131.05719 292.72443 -292.72443 292.72443l0 0c-161.66722 0 -292.7244 -131.05719 -292.7244 -292.72443z" fill-rule="evenodd"/><path fill="#000000" d="m214.20473 177.29921l0 0c0 -51.975647 38.41185 -94.11023 85.79527 -94.11023l0 0c22.754333 0 44.57669 9.9151535 60.666412 27.564247c16.089752 17.649086 25.128876 41.586403 25.128876 66.54598l0 0c0 51.975647 -38.411865 94.110245 -85.79529 94.110245l0 0c-47.383423 0 -85.79527 -42.134598 -85.79527 -94.110245z" fill-rule="evenodd"/><path stroke="#000000" stroke-width="8.0" stroke-linejoin="round" stroke-linecap="butt" d="m214.20473 177.29921l0 0c0 -51.975647 38.41185 -94.11023 85.79527 -94.11023l0 0c22.754333 0 44.57669 9.9151535 60.666412 27.564247c16.089752 17.649086 25.128876 41.586403 25.128876 66.54598l0 0c0 51.975647 -38.411865 94.110245 -85.79529 94.110245l0 0c-47.383423 0 -85.79527 -42.134598 -85.79527 -94.110245z" fill-rule="evenodd"/><path fill="#000000" d="m117.51181 426.64566l0 0c0 -91.72275 81.70274 -166.07874 182.48819 -166.07874l0 0c100.78543 0 182.48819 74.35599 182.48819 166.07874l0 0c0 91.72275 -81.70276 166.07877 -182.48819 166.07877l0 0c-100.785446 0 -182.48819 -74.35602 -182.48819 -166.07877z" fill-rule="evenodd"/><path stroke="#000000" stroke-width="8.0" stroke-linejoin="round" stroke-linecap="butt" d="m117.51181 426.64566l0 0c0 -91.72275 81.70274 -166.07874 182.48819 -166.07874l0 0c100.78543 0 182.48819 74.35599 182.48819 166.07874l0 0c0 91.72275 -81.70276 166.07877 -182.48819 166.07877l0 0c-100.785446 0 -182.48819 -74.35602 -182.48819 -166.07877z" fill-rule="evenodd"/></g></svg>